<?xml version="1.0" encoding="UTF-8" standalone="no"?>
<!-- Created with Inkscape (http://www.inkscape.org/) -->

<svg
   width="896"
   height="352.46378"
   viewBox="0 0 237.06667 93.256038"
   version="1.1"
   id="svg5"
   inkscape:version="1.1.1 (3bf5ae0d25, 2021-09-20)"
   sodipodi:docname="nodejs-parcel-typescript.svg"
   xmlns:inkscape="http://www.inkscape.org/namespaces/inkscape"
   xmlns:sodipodi="http://sodipodi.sourceforge.net/DTD/sodipodi-0.dtd"
   xmlns="http://www.w3.org/2000/svg"
   xmlns:svg="http://www.w3.org/2000/svg">
  <sodipodi:namedview
     id="namedview7"
     pagecolor="#ffffff"
     bordercolor="#666666"
     borderopacity="1.0"
     inkscape:pageshadow="2"
     inkscape:pageopacity="0.0"
     inkscape:pagecheckerboard="0"
     inkscape:document-units="mm"
     showgrid="false"
     units="px"
     lock-margins="true"
     fit-margin-top="32"
     fit-margin-left="32"
     fit-margin-right="32"
     fit-margin-bottom="32"
     inkscape:zoom="0.64052329"
     inkscape:cx="882.87188"
     inkscape:cy="228.71924"
     inkscape:window-width="1536"
     inkscape:window-height="953"
     inkscape:window-x="-8"
     inkscape:window-y="-8"
     inkscape:window-maximized="1"
     inkscape:current-layer="layer1" />
  <defs
     id="defs2">
    <linearGradient
       x1="140.7618"
       y1="211.39671"
       x2="141.27528"
       y2="211.9178"
       id="linearGradient-1"
       gradientTransform="scale(1.2477006,0.80147435)"
       gradientUnits="userSpaceOnUse">
      <stop
         stop-color="#000000"
         offset="0%"
         id="stop21" />
      <stop
         stop-color="#000000"
         stop-opacity="0"
         offset="100%"
         id="stop23" />
    </linearGradient>
    <linearGradient
       x1="57.204838"
       y1="281.65375"
       x2="57.084816"
       y2="281.77695"
       id="linearGradient-2"
       gradientTransform="scale(1.618038,0.61803244)"
       gradientUnits="userSpaceOnUse">
      <stop
         stop-color="#000000"
         offset="0%"
         id="stop26" />
      <stop
         stop-color="#000000"
         stop-opacity="0"
         offset="100%"
         id="stop28" />
    </linearGradient>
    <linearGradient
       x1="92.79258"
       y1="74.087082"
       x2="98.57618"
       y2="75.815475"
       id="linearGradient-3"
       gradientTransform="scale(1.1777303,0.84909084)"
       gradientUnits="userSpaceOnUse">
      <stop
         stop-color="#C37A44"
         offset="0%"
         id="stop31" />
      <stop
         stop-color="#BB713D"
         offset="44.42%"
         id="stop33" />
      <stop
         stop-color="#A05728"
         offset="64.06%"
         id="stop35" />
      <stop
         stop-color="#964E23"
         offset="100%"
         id="stop37" />
    </linearGradient>
    <linearGradient
       x1="59.620712"
       y1="51.935684"
       x2="40.913715"
       y2="36.770351"
       id="linearGradient-4"
       gradientTransform="scale(1.3158203,0.75998217)"
       gradientUnits="userSpaceOnUse">
      <stop
         stop-color="#E9B880"
         offset="0%"
         id="stop40" />
      <stop
         stop-color="#E4AF76"
         offset="100%"
         id="stop42" />
    </linearGradient>
    <linearGradient
       x1="55.719212"
       y1="86.930473"
       x2="55.068562"
       y2="86.238647"
       id="linearGradient-5"
       gradientTransform="scale(1.6097089,0.62123033)"
       gradientUnits="userSpaceOnUse">
      <stop
         stop-color="#C37A45"
         stop-opacity="0"
         offset="0%"
         id="stop45" />
      <stop
         stop-color="#C37A45"
         offset="13.34%"
         id="stop47" />
      <stop
         stop-color="#D08D55"
         offset="29.45%"
         id="stop49" />
      <stop
         stop-color="#DEA167"
         offset="50.21%"
         id="stop51" />
      <stop
         stop-color="#E8AF73"
         offset="69.66%"
         id="stop53" />
      <stop
         stop-color="#ECB477"
         offset="86.31%"
         id="stop55" />
      <stop
         stop-color="#ECB477"
         stop-opacity="0"
         offset="100%"
         id="stop57" />
    </linearGradient>
    <linearGradient
       x1="138.28818"
       y1="65.814156"
       x2="123.0189"
       y2="95.343193"
       id="linearGradient-6"
       gradientTransform="scale(1.0901535,0.91730205)"
       gradientUnits="userSpaceOnUse">
      <stop
         stop-color="#AF6938"
         offset="8.81%"
         id="stop60" />
      <stop
         stop-color="#9A5227"
         offset="48.29%"
         id="stop62" />
      <stop
         stop-color="#8D4520"
         offset="77.92%"
         id="stop64" />
    </linearGradient>
    <linearGradient
       x1="113.11688"
       y1="53.892338"
       x2="125.61239"
       y2="43.90274"
       id="linearGradient-7"
       gradientTransform="scale(1.499656,0.66681961)"
       gradientUnits="userSpaceOnUse">
      <stop
         stop-color="#E4AF76"
         offset="3.27%"
         id="stop67" />
      <stop
         stop-color="#E9B880"
         offset="100%"
         id="stop69" />
    </linearGradient>
    <linearGradient
       x1="79.651688"
       y1="99.803566"
       x2="80.033997"
       y2="99.350861"
       id="linearGradient-8"
       gradientTransform="scale(1.9358033,0.5165814)"
       gradientUnits="userSpaceOnUse">
      <stop
         stop-color="#AF6A38"
         stop-opacity="0"
         offset="0%"
         id="stop72" />
      <stop
         stop-color="#AF6A38"
         offset="8.6%"
         id="stop74" />
      <stop
         stop-color="#B87542"
         offset="19.77%"
         id="stop76" />
      <stop
         stop-color="#D59C66"
         offset="58.28%"
         id="stop78" />
      <stop
         stop-color="#E4AF76"
         offset="77.71%"
         id="stop80" />
      <stop
         stop-color="#E4AF76"
         stop-opacity="0"
         offset="92.39%"
         id="stop82" />
    </linearGradient>
    <linearGradient
       x1="407.95599"
       y1="18.764751"
       x2="417.98663"
       y2="18.764751"
       id="linearGradient-9"
       gradientTransform="scale(0.28906404,3.4594411)"
       gradientUnits="userSpaceOnUse">
      <stop
         stop-color="#743F1A"
         stop-opacity="0"
         offset="0%"
         id="stop85" />
      <stop
         stop-color="#743F1A"
         stop-opacity="0.8872"
         offset="49.29%"
         id="stop87" />
      <stop
         stop-color="#743F1A"
         stop-opacity="0.9"
         offset="50%"
         id="stop89" />
      <stop
         stop-color="#743F1A"
         stop-opacity="0.8466"
         offset="52.97%"
         id="stop91" />
      <stop
         stop-color="#743F1A"
         stop-opacity="0"
         offset="100%"
         id="stop93" />
    </linearGradient>
    <linearGradient
       x1="56.65506"
       y1="282.34406"
       x2="56.712666"
       y2="282.28571"
       id="linearGradient-10"
       gradientTransform="scale(1.6264287,0.61484403)"
       gradientUnits="userSpaceOnUse">
      <stop
         stop-color="#322214"
         offset="0%"
         id="stop96" />
      <stop
         stop-color="#322314"
         stop-opacity="0.9891"
         offset="23.97%"
         id="stop98" />
      <stop
         stop-color="#322214"
         stop-opacity="0"
         offset="100%"
         id="stop100" />
    </linearGradient>
    <linearGradient
       x1="44.475487"
       y1="120.27744"
       x2="42.167686"
       y2="123.16226"
       id="linearGradient-11"
       gradientTransform="scale(1.6339176,0.61202597)"
       gradientUnits="userSpaceOnUse">
      <stop
         stop-color="#C69866"
         offset="4.76%"
         id="stop103" />
      <stop
         stop-color="#BA8C5E"
         offset="41.56%"
         id="stop105" />
      <stop
         stop-color="#B5875B"
         offset="81.35%"
         id="stop107" />
    </linearGradient>
    <linearGradient
       x1="71.635933"
       y1="87.235329"
       x2="51.605022"
       y2="67.266586"
       id="linearGradient-12"
       gradientTransform="scale(1.055494,0.94742367)"
       gradientUnits="userSpaceOnUse">
      <stop
         stop-color="#845F35"
         offset="0%"
         id="stop110" />
      <stop
         stop-color="#91673C"
         offset="43.11%"
         id="stop112" />
      <stop
         stop-color="#976A40"
         offset="44.07%"
         id="stop114" />
      <stop
         stop-color="#986B40"
         offset="87.37%"
         id="stop116" />
      <stop
         stop-color="#AB8157"
         offset="100%"
         id="stop118" />
    </linearGradient>
    <linearGradient
       x1="141.05383"
       y1="211.42987"
       x2="141.11639"
       y2="211.4929"
       id="linearGradient-13"
       gradientTransform="scale(1.2502469,0.799842)"
       gradientUnits="userSpaceOnUse">
      <stop
         stop-color="#322214"
         stop-opacity="0"
         offset="0%"
         id="stop121" />
      <stop
         stop-color="#322214"
         offset="100%"
         id="stop123" />
    </linearGradient>
    <linearGradient
       x1="217.93889"
       y1="74.773239"
       x2="220.76273"
       y2="57.730347"
       id="linearGradient-14"
       gradientTransform="scale(0.91535879,1.0924678)"
       gradientUnits="userSpaceOnUse">
      <stop
         stop-color="#A9794B"
         offset="0%"
         id="stop126" />
      <stop
         stop-color="#AE7F53"
         offset="38.57%"
         id="stop128" />
      <stop
         stop-color="#AC7D50"
         offset="45.57%"
         id="stop130" />
      <stop
         stop-color="#A9794B"
         offset="62.36%"
         id="stop132" />
      <stop
         stop-color="#B2875D"
         offset="100%"
         id="stop134" />
    </linearGradient>
  </defs>
  <g
     inkscape:label="Layer 1"
     inkscape:groupmode="layer"
     id="layer1"
     transform="translate(-29.966708,-58.37198)">
    <path
       d="m 72.300034,143.16135 c -1.05176,0 -2.033399,-0.28047 -2.944929,-0.77129 l -9.3256,-5.53927 c -1.40235,-0.77129 -0.70118,-1.05176 -0.28047,-1.19199 1.89317,-0.63106 2.24375,-0.77129 4.20704,-1.89317 0.21035,-0.14023 0.49082,-0.0701 0.70117,0.0701 l 7.151969,4.27716 c 0.28047,0.14023 0.63105,0.14023 0.84141,0 L 100.62744,121.9158 c 0.28047,-0.14023 0.4207,-0.4207 0.4207,-0.77129 V 88.820428 c 0,-0.350587 -0.14023,-0.631056 -0.4207,-0.771291 L 72.650624,71.922153 c -0.28047,-0.140235 -0.63106,-0.140235 -0.84141,0 L 43.832405,88.049137 c -0.28047,0.140235 -0.42071,0.490821 -0.42071,0.771291 v 32.324082 c 0,0.28047 0.14024,0.63106 0.42071,0.77129 l 7.64278,4.4174 c 4.13693,2.10351 6.73127,-0.35059 6.73127,-2.8047 V 91.62512 c 0,-0.420703 0.35058,-0.841407 0.84141,-0.841407 h 3.57598 c 0.4207,0 0.84141,0.350586 0.84141,0.841407 v 31.90338 c 0,5.53927 -3.01505,8.76467 -8.27385,8.76467 -1.6127,0 -2.87481,0 -6.45079,-1.75293 l -7.36232,-4.20704 c -1.82305,-1.05176 -2.94492,-3.01505 -2.94492,-5.11857 V 88.890545 c 0,-2.103519 1.12187,-4.066805 2.94492,-5.118564 l 27.97681,-16.197103 c 1.752929,-0.981642 4.136919,-0.981642 5.889859,0 l 27.976816,16.197103 c 1.82305,1.051759 2.94492,3.015045 2.94492,5.118564 v 32.324085 c 0,2.10352 -1.12187,4.06681 -2.94492,5.11857 l -27.976816,16.1971 c -0.91153,0.4207 -1.96329,0.63105 -2.94493,0.63105 z m 8.62443,-22.22719 c -12.270529,0 -14.794749,-5.60938 -14.794749,-10.37736 0,-0.42071 0.35058,-0.84141 0.8414,-0.84141 h 3.646099 c 0.42071,0 0.77129,0.28047 0.77129,0.70117 0.56094,3.71622 2.17364,5.53927 9.60608,5.53927 5.88985,0 8.41408,-1.33223 8.41408,-4.48751 0,-1.82305 -0.70118,-3.15528 -9.88655,-4.0668 -7.64278,-0.77129 -12.410759,-2.45411 -12.410759,-8.554314 0,-5.679505 4.767979,-9.045136 12.761349,-9.045136 8.97502,0 13.392411,3.085163 13.953351,9.816425 0,0.210352 -0.0701,0.420705 -0.21035,0.631055 -0.14024,0.14024 -0.35059,0.28047 -0.56094,0.28047 h -3.646101 c -0.35059,0 -0.70118,-0.28047 -0.7713,-0.631056 -0.8414,-3.856453 -3.01504,-5.118565 -8.76466,-5.118565 -6.4508,0 -7.22208,2.243756 -7.22208,3.92657 0,2.033401 0.91152,2.664461 9.60607,3.786341 8.62443,1.12187 12.691231,2.73457 12.691231,8.76466 -0.0701,6.17033 -5.118561,9.67619 -14.023461,9.67619 z"
       fill="#539e43"
       id="path9"
       style="stroke-width:0.264583" />
    <g
       id="g191"
       transform="matrix(0.26458333,0,0,0.26458333,114.63333,79.534785)">
      <path
         d="m 140.51453,191.33303 70.25727,-44.42827 c 0.25999,-0.15999 0.59998,-0.09 0.75997,0.16999 0.15999,0.25999 0.09,0.59998 -0.17,0.75997 l -70.48725,44.56827 c -0.09,0.06 -0.18999,0.09 -0.28999,0.09 z"
         fill="url(#linearGradient-1)"
         id="path139"
         style="fill:url(#linearGradient-1)" />
      <path
         d="m 140.58453,192.49299 c -0.06,0 -0.13,-0.01 -0.18999,-0.03 L 44.608264,156.76438 c -0.289989,-0.11 -0.429983,-0.41999 -0.319987,-0.70998 0.109995,-0.28998 0.419983,-0.42998 0.709972,-0.31998 l 95.536281,35.59861 z"
         fill="url(#linearGradient-2)"
         id="path141"
         style="fill:url(#linearGradient-2)" />
      <path
         d="m 241.10062,21.809628 -11.05957,18.309287 -44.42827,18.889266 -2.46991,1.049959 -39.92844,37.338547 c -0.76997,0.76997 -1.28995,1.869927 -1.37995,2.479903 -0.04,0.20999 -0.21999,0.119996 -0.38998,0.109996 -0.18,-0.01 -0.42999,0.05999 -0.44999,-0.159994 -0.02,-0.799969 -0.10999,-1.689934 -1.39994,-2.489903 L 119.58535,84.377193 v 0 L 104.99591,74.917562 63.897514,64.377972 29.498852,55.558315 7.7097,21.709632 l 0.3299872,-0.379985 0.019999,-0.03 L 89.856504,0.0404751 c 0.119995,-0.0399984477 0.139994,-0.02047588 0.189992,0.04999805 l 27.898914,41.78837385 0.54998,0.819968 c 0.59998,0.879966 0.65997,1.419945 0.65997,1.80993 h 0.50998 c 0,-0.03 0,-0.06 0,-0.09 0,-0.04 0,-0.09 0.01,-0.139994 0,-0.03 0.01,-0.06 0.01,-0.1 0.01,-0.04 0.01,-0.08 0.02,-0.119996 0.01,-0.04 0.01,-0.08 0.02,-0.129995 0.03,-0.139994 0.07,-0.299988 0.11,-0.459982 0.01,-0.05 0.03,-0.1 0.04,-0.139994 0.05,-0.159994 0.1,-0.329988 0.15999,-0.489981 0.03,-0.06 0.05,-0.129995 0.08,-0.189993 0.08,-0.199992 0.15999,-0.379985 0.24999,-0.539979 0.08,-0.159994 0.15999,-0.289989 0.23999,-0.399984 l 25.14902,-36.57857 c 0.06,-0.089997 0.09,-0.1299949 0.21999,-0.1099957 l 94.9663,16.3393637 z"
         fill="#e8b67f"
         id="path143" />
      <polygon
         fill="url(#linearGradient-3)"
         points="63.897514,64.377972 119.15536,44.508745 119.30536,44.218756 119.30536,44.508745 119.58535,84.367194 119.57535,84.367194 104.99591,74.917562 "
         id="polygon145"
         style="fill:url(#linearGradient-3)" />
      <path
         d="M 119.15536,44.508745 63.897514,64.367972 58.917707,63.088022 29.498852,55.538316 7.7097,21.689633 8.0596864,21.279649 89.856504,0.02047587 C 89.976499,-0.01952257 89.996498,0 90.046496,0.07047393 l 27.898914,41.78837407 0.54998,0.819968 c 0.59998,0.899965 0.65997,1.439944 0.65997,1.829929 z"
         fill="url(#linearGradient-4)"
         id="path147"
         style="fill:url(#linearGradient-4)" />
      <path
         d="m 119.35036,46.618663 -52.247971,18.779269 -8.149683,-2.089919 59.027704,-21.219174 0.54998,0.819968 c 0.59997,0.879966 0.65997,1.419945 0.65997,1.80993 h 0.15 z"
         fill="url(#linearGradient-5)"
         id="path149"
         style="fill:url(#linearGradient-5)" />
      <polygon
         fill="#d2a679"
         points="7.7196996,21.699632 8.0496868,21.319647 30.248823,55.738308 29.508852,55.548315 "
         id="polygon151" />
      <path
         d="m 185.61278,59.008181 -2.46991,1.049959 -39.92844,37.338547 c -0.76997,0.76997 -1.28995,1.869927 -1.37995,2.479903 -0.04,0.20999 -0.21999,0.119996 -0.38998,0.109996 -0.18,-0.01 -0.42999,0.05999 -0.44999,-0.159994 -0.02,-0.799969 -0.10999,-1.689934 -1.39994,-2.489903 l -20.00922,-12.969495 -0.26999,-39.84845 v -0.289988 l 0.36998,0.289988 z"
         fill="url(#linearGradient-6)"
         id="path153"
         style="fill:url(#linearGradient-6)" />
      <path
         d="m 241.10062,21.809628 -11.05957,18.309287 -40.43843,17.189332 -3.97984,1.689934 -65.94744,-14.489436 c -0.04,-0.50998 0.30999,-1.669935 0.68998,-2.409907 0.08,-0.159993 0.15999,-0.289988 0.23999,-0.399984 L 145.75433,5.1202774 c 0.06,-0.089996 0.09,-0.1299949 0.21999,-0.1099957 l 94.9663,16.3393643 z"
         fill="url(#linearGradient-7)"
         id="path155"
         style="fill:url(#linearGradient-7)" />
      <path
         d="m 189.60262,57.308247 -6.44975,2.739893 -0.82997,0.799969 -63.01754,-13.929458 0.28999,-2.419906 h 0.08 c -0.04,-0.50998 0.30999,-1.669935 0.68998,-2.409906 z"
         fill="url(#linearGradient-8)"
         id="path157"
         style="fill:url(#linearGradient-8)" />
      <polygon
         fill="url(#linearGradient-9)"
         opacity="0.75"
         points="119.58535,84.367194 119.57535,84.367194 117.64542,83.107243 117.64542,45.048724 119.15536,44.508745 119.66534,44.508745 121.05529,44.808733 121.05529,85.317157 "
         id="polygon159"
         style="fill:url(#linearGradient-9)" />
      <path
         d="M 140.19454,191.84301 44.328275,156.0744 c -0.539979,-0.22999 -0.619976,-0.73997 -0.649975,-1.36994 0,0 -4.119839,-81.696824 -4.129839,-81.706824 -0.01,-0.209992 0.24999,-0.339987 0.229991,-0.469982 -0.07,-0.309987 -0.659974,-1.479942 -0.849967,-1.599937 L 0,48.808577 0.32998716,48.058607 104.99591,74.917562 139.58457,97.326689 c 1.28995,0.799969 1.38994,1.689935 1.39994,2.489904 0.01,0.219987 0.26999,0.149994 0.44999,0.159993 0.17999,0.01 0.34998,0.09999 0.38998,-0.109995 0.09,-0.609977 0.60998,-1.709934 1.37995,-2.469904 l 39.92844,-37.338547 72.40719,-30.778803 0.43998,0.609977 -39.08848,34.348663 c -0.75997,0.75997 -1.10996,1.689934 -0.95996,2.069919 l -3.99985,80.066884 c -0.06,0.50998 -0.29999,0.65998 -0.80997,1.00996 l -70.07727,44.35828 c -0.27999,0.17999 -0.57998,0.22999 -0.84997,0.1 z"
         fill="#bf9064"
         id="path161" />
      <path
         d="m 141.4345,99.976586 -0.68998,91.906424 c -0.18999,0.05 -0.37998,0.04 -0.55997,-0.04 L 44.318275,156.0844 c -0.539978,-0.22999 -0.619975,-0.74997 -0.649974,-1.36994 0,0 -4.12984,-81.696825 -4.12984,-81.706824 v -0.02 c 0,-0.02 0,-0.04 0.01,-0.06 0,-0.02 0.01,-0.03 0.02,-0.04 0.01,-0.02 0.02,-0.03 0.03,-0.05 0.01,-0.02 0.02,-0.03 0.03,-0.05 0.04,-0.06 0.1,-0.119995 0.119995,-0.169993 0.01,-0.01 0.01,-0.02 0.01,-0.03 0,0 0,0 0,-0.01 L 140.99451,99.856591 c 0.04,0.179989 0.27999,0.109996 0.43999,0.119995 z"
         fill="#bd8f63"
         id="path163" />
      <path
         d="m 140.75452,191.61302 v 0.25999 c -0.18999,0.05 -0.37998,0.04 -0.55998,-0.04 L 44.328275,156.0744 c -0.379985,-0.15999 -0.529979,-0.46998 -0.599977,-0.84996 z"
         fill="url(#linearGradient-10)"
         opacity="0.54"
         id="path165"
         style="fill:url(#linearGradient-10)" />
      <path
         d="m 97.40621,135.86519 37.11855,12.13953 -0.09,36.19859 -36.428584,-13.37948 z m 18.59928,24.31905 0.09,16.76935 17.9783,6.60474 0.001,-17.09433 z m 5.31157,5.41753 3.63308,5.78204 3.5587,-3.11786 0.61944,0.70694 -3.67216,3.21689 3.68104,5.85799 -0.5334,0.33515 -3.62762,-5.77316 -3.54155,3.10444 -0.61943,-0.70694 3.655,-3.20347 -3.6865,-5.86688 z m 10.6978,6.51201 v 1.64993 l 0.94997,0.30999 v 1.85993 l -0.94997,-0.37998 v 1.49994 l -2.07992,-3.15988 z m -3.19987,-2.00992 0.72997,0.22999 v 6.58974 l -0.72997,-0.25999 z m -30.678809,-16.12938 0.26999,16.50936 17.179329,6.27976 -0.1,-16.72935 z m 26.858959,19.67924 1.87992,3.02988 -3.74985,-1.35995 z m 2.89988,-2.77989 v 4.29983 l -1.94992,-2.74989 z m -7.43971,-3.82985 0.71998,0.23999 v 6.57974 l -0.71998,-0.24999 z m 1.61994,1.76993 1.85993,2.86989 -1.85993,1.42994 z m -15.5394,-7.96969 0.70998,0.22999 0.002,0.42227 c 2.11344,0.85019 4.20144,2.97021 5.20816,6.26747 -0.65997,-1.10996 -1.23995,-1.31995 -2.26991,-0.96996 -0.37998,-0.78997 -1.49994,-1.20996 -2.16991,-0.78997 -0.18316,-0.34801 -0.45221,-0.60878 -0.74568,-0.77643 l 0.0357,6.27621 c 0,0.57998 -0.39999,1.09996 -1.38995,0.89997 -0.89997,-0.21999 -1.26995,-0.90997 -1.16996,-2.08992 v 0 l 0.49998,0.08 c 0,0.78997 0.06,1.23995 0.65998,1.37994 0.50998,0.12 0.73997,-0.07 0.73997,-0.53998 v 0 l -0.0661,-6.22495 c -0.28395,-0.0206 -0.54687,0.0494 -0.73386,0.21519 -0.22999,-0.57998 -1.31995,-1.35995 -2.13991,-0.77997 -0.57998,-0.91997 -1.66994,-1.26995 -2.27992,-0.59998 0.77847,-2.35485 2.89445,-3.18042 5.11319,-2.585 z m 11.37956,6.12976 2.02992,3.19987 -2.00992,1.66994 0.04,-1.56994 -0.97996,-0.22999 v -1.81993 l 0.91996,0.33999 z m 5.1498,0.68997 3.79985,1.37995 -1.89992,1.66993 z m -7.08972,-25.19902 0.04,17.09934 18.06929,6.29975 V 148.3947 Z m 3.36987,14.76943 10.79958,3.68985 v 2.14992 l -10.79958,-3.71985 z m -9.33818,4.06839 0.0385,0.0114 c 0.07,0.07 0.07,0.81997 -0.16,0.98996 -0.10999,0.05 -0.27999,0.06 -0.41998,-0.05 -0.13999,-0.10999 -0.21999,-0.26999 -0.15999,-0.50998 0.06,-0.23999 0.65997,-0.49998 0.73997,-0.42998 z m 0.99996,-1.70993 0.0385,0.0115 c 0.08,0.07 0.08,0.81996 -0.16,0.98996 -0.10999,0.05 -0.27998,0.06 -0.41998,-0.05 -0.13999,-0.11 -0.21999,-0.26999 -0.15999,-0.50998 0.06,-0.23999 0.65997,-0.49998 0.73997,-0.42998 z m -2.79989,-0.07 0.0385,0.0114 c 0.08,0.07 0.08,0.81997 -0.16,0.98996 -0.10999,0.05 -0.27998,0.06 -0.41998,-0.05 -0.13999,-0.10999 -0.21999,-0.26999 -0.15999,-0.50998 0.06,-0.23999 0.65997,-0.49998 0.73997,-0.42998 z m -2.82989,-0.40998 0.0385,0.0114 c 0.08,0.07 0.08,0.81997 -0.16,0.98997 -0.10999,0.05 -0.27998,0.06 -0.41998,-0.05 -0.13999,-0.11 -0.21999,-0.26999 -0.15999,-0.50998 0.06,-0.23999 0.65997,-0.49998 0.73997,-0.42999 z m 22.30767,-11.22812 2.6199,5.1698 -1.78993,-0.60998 v 7.48971 l -1.78993,-0.61997 0.01,-7.42971 -1.77993,-0.57998 z m -29.888835,-11.37956 0.309988,16.86935 17.389327,5.97977 -0.15,-17.08934 z m 23.979065,9.40964 2.6199,5.1698 -1.78993,-0.60998 v 7.48971 l -1.78993,-0.61998 0.02,-7.42971 -1.78993,-0.57997 z m -20.08922,-6.01977 1.41995,0.46998 0.65997,2.38991 -0.73997,-0.05 2.10992,5.09981 -1.08996,-4.19984 0.61998,-0.01 -0.62998,-2.92989 7.32972,2.41991 v 4.02984 c 0,1.52994 -1.65994,3.45987 -3.99985,2.4999 v 0 l 0.01,4.04985 3.35987,2.15991 -8.12968,-2.81989 3.26987,0.16 -0.06,-4.00985 c -2.31991,-0.68997 -3.99984,-3.47986 -3.99984,-5.1798 v 0 z"
         fill="#322214"
         id="path167" />
      <path
         d="m 141.4345,99.976586 c -0.39999,0.01 -0.69998,0.539984 -0.70998,1.019964 l -0.09,0.04 L 39.538461,72.997636 c -0.01,-0.189992 0.209992,-0.309988 0.229992,-0.429983 0.01,-0.01 0.01,-0.02 0,-0.03 -0.07,-0.309988 -0.659975,-1.479942 -0.849967,-1.599938 L 0,48.808577 0.32998716,48.058607 104.98592,74.907562 h 0.01 l 34.58866,22.409128 c 1.28995,0.809968 1.38994,1.689934 1.39994,2.489903 0,0.01 0,0.03 0.01,0.04 0.04,0.189987 0.27999,0.119996 0.43999,0.129995 z"
         fill="url(#linearGradient-11)"
         id="path169"
         style="fill:url(#linearGradient-11)" />
      <path
         d="m 216.90156,64.227977 c -0.75997,0.759971 -1.10996,1.689935 -0.95996,2.06992 l -73.62714,34.838643 -0.14999,-0.11999 c -0.01,-0.57998 -0.37999,-0.96997 -0.65998,-1.029964 0.15,0.02 0.28999,0.06999 0.32999,-0.119995 0.02,-0.119996 0.05,-0.25999 0.1,-0.409984 0.04,-0.129995 0.1,-0.26999 0.16999,-0.419984 0.20999,-0.479981 0.52998,-0.999961 0.93996,-1.459943 0.06,-0.06 0.12,-0.129995 0.18,-0.189993 l 39.92844,-37.338547 72.40719,-30.778802 0.43998,0.609976 z"
         fill="#cd9c6b"
         id="path171" />
      <path
         d="m 95.996265,109.13623 c 0.109995,0.03 0.149994,0.04 0.149994,-0.05 L 95.766273,88.747023 c -0.03,-0.689973 -0.199992,-2.04992 -1.029959,-2.599898 L 57.867748,63.747996 40.588421,59.28817 78.056963,81.677298 c 0.939963,0.619976 1.01996,1.779931 1.059958,2.639898 L 79.6569,104.09643 c 0,0.1 0.02,0.11999 0.09,0.14999 z"
         fill="url(#linearGradient-12)"
         id="path173"
         style="fill:url(#linearGradient-12)" />
      <path
         d="m 141.4345,99.976586 c -0.40999,0.01 -0.70998,0.569974 -0.70998,1.059964 -0.01,0.04 -0.08,0.03 -0.09,0 -0.08,-1.089962 -0.52998,-2.309915 -1.11996,-2.739898 l -34.86864,-22.479126 0.33999,-0.909964 h 0.01 l 34.58866,22.409128 c 1.28995,0.809968 1.38994,1.689934 1.39994,2.489903 0,0.01 0,0.03 0.01,0.04 0.04,0.189987 0.27999,0.119996 0.43999,0.129995 z"
         fill="#d4a271"
         id="path175" />
      <polygon
         fill="#deb37e"
         points="0,48.808577 0.32998716,48.068606 104.98592,74.917562 104.64593,75.817526 "
         id="polygon177" />
      <path
         d="m 215.9516,66.297897 -3.99985,80.066883 c -0.06,0.50998 -0.29999,0.65998 -0.80997,1.00996 l -70.07727,44.35828 c -0.1,0.07 -0.20999,0.10999 -0.30999,0.13999 l 0.68998,-91.906423 c 0.17999,0.01 0.34998,0.09999 0.38998,-0.109996 0,-0.03 0.01,-0.05 0.01,-0.08 L 215.9316,66.2079 c 0,0.05 0.01,0.07 0.02,0.09 z"
         fill="#dbad77"
         id="path179" />
      <path
         d="m 211.95175,146.33478 v 0.04 c -0.06,0.50998 -0.29999,0.65998 -0.80997,1.00996 l -70.07727,44.35828 c -0.1,0.07 -0.20999,0.10999 -0.30999,0.13999 v -0.25999 z"
         fill="url(#linearGradient-13)"
         opacity="0.54"
         id="path181"
         style="fill:url(#linearGradient-13)" />
      <path
         d="m 210.6418,111.49614 -1.59993,32.59873 -23.2991,14.50943 1.19996,-33.92867 z m -12.45951,23.59908 -11.57955,6.80973 -0.54998,16.04938 11.52955,-7.16972 z m -5.52979,6.88973 -0.0211,0.54022 c 1.38315,-0.69023 2.69018,-0.20929 3.24098,2.07968 -0.37999,-0.52998 -1.06996,-0.31999 -1.52994,0.75997 -0.20999,-0.44998 -1.27995,-0.08 -1.43995,0.85997 -0.0854,-0.15255 -0.23881,-0.20829 -0.41499,-0.18852 l -0.25498,6.18828 c -0.02,0.52998 -0.05,1.09996 -0.71997,1.50994 -0.30999,0.14 -1.12996,0.24999 -1.01996,-0.89996 v 0 l 0.38998,-0.29999 c -0.03,0.72997 0.16,0.94997 0.55998,0.70997 0.47998,-0.28999 0.38998,-0.74997 0.40998,-1.17995 v 0 l 0.21594,-5.86324 c -0.28127,0.18526 -0.53628,0.50809 -0.60592,0.89343 -0.12,-0.35998 -1.27995,-0.13999 -1.41995,0.88997 -0.32998,-0.43998 -1.22995,-0.01 -1.56993,1.09996 0.62667,-2.88268 2.17829,-5.27524 3.72363,-6.30564 l 0.0162,-0.4741 z m 16.89935,-13.60947 -11.03958,6.52975 -0.60997,15.72938 10.91957,-6.86973 z m -3.40987,5.29979 0.31999,0.29999 -2.40591,5.45779 1.98592,2.74189 -0.31999,0.67998 -1.97992,-2.7099 -2.37991,5.39979 -0.32998,-0.29999 2.4239,-5.49078 -2.05392,-2.80889 0.35999,-0.67998 2.00892,2.7749 z m -6.71974,6.26976 1.24995,1.51994 -1.32995,2.85989 v -1.25995 l -0.55998,0.33999 0.03,-1.62994 0.55998,-0.32999 z m 2.15992,-1.97992 -0.25999,6.02976 -0.44999,0.29999 0.24999,-6.00976 z m 2.10991,3.14988 1.06996,1.40994 -2.29991,1.39995 z m -12.24952,0.43998 c 0.05,0 0.02,0.68997 -0.14999,1.02996 -0.06,0.11999 -0.17,0.24999 -0.25999,0.25999 -0.09,0.01 -0.13,-0.09 -0.08,-0.34999 0.05,-0.25999 0.43998,-0.93996 0.48998,-0.93996 z m 10.63959,-2.76989 1.05995,1.30995 -1.23995,2.4499 z m -7.59971,1.51994 c 0.04,0.01 0.01,0.69997 -0.14999,1.02996 -0.06,0.11999 -0.17,0.24999 -0.25999,0.25999 -0.09,0.01 -0.13,-0.09 -0.08,-0.34999 0.05,-0.25999 0.43998,-0.93996 0.48998,-0.93996 z m 4.43983,-21.83915 -11.69955,6.55974 -0.60997,16.36936 11.60955,-6.83973 z m 7.7097,16.42936 -0.27999,6.01976 -0.39998,0.25999 0.26998,-6.00976 z m -13.24949,4.9598 c 0.05,0 0.02,0.68998 -0.14999,1.02996 -0.06,0.12 -0.16999,0.24999 -0.25999,0.25999 -0.09,0.01 -0.12999,-0.09 -0.08,-0.34998 0.05,-0.25999 0.43999,-0.93997 0.48998,-0.93997 z m 12.21953,-3.20987 -0.15999,3.83985 -1.03996,-1.23995 z m 2.4799,-1.82993 -0.06,1.47994 0.57998,-0.31998 -0.07,1.63993 -0.55998,0.32999 -0.02,1.34995 -1.20996,-1.44995 z m -12.8295,3.05988 c 0.05,0 0.02,0.68997 -0.14999,1.02996 -0.06,0.12 -0.17,0.24999 -0.25999,0.25999 -0.09,0.01 -0.13,-0.09 -0.08,-0.34999 0.05,-0.25999 0.43998,-0.93996 0.48998,-0.93996 z m 9.77962,-2.31991 -1.23995,2.83989 -1.06996,-1.44994 z m -8.82966,-13.60947 -0.14999,4.11984 c -0.06,1.39995 -1.17995,3.93985 -2.84989,4.99981 v 0 l -0.17999,3.88985 2.22991,-0.47999 -5.42979,3.13988 2.25992,-2.14991 0.11999,-3.81986 c -1.44994,0.82997 -2.6099,-0.70997 -2.5399,-2.26991 v 0 l 0.12999,-3.77985 0.97997,-0.52998 0.31998,1.81993 -0.52997,0.42998 1.16995,3.38987 -0.44998,-3.08988 0.39998,-0.45998 -0.30999,-2.42991 z m 14.19945,-9.85961 -11.19956,6.25975 -0.69997,16.08938 11.09956,-6.63975 z m -2.91988,13.86946 -0.14,1.90992 -6.55974,3.87985 0.09,-1.92992 z m -4.63982,-8.24968 1.44994,3.05988 -1.08996,0.60997 -0.32998,6.86974 -1.03996,0.59997 0.19999,-6.86973 -1.04996,0.62998 z m 3.63985,-2.01992 1.40995,3.00988 -1.15995,0.64997 -0.24,6.81974 -1.10995,0.61997 0.34998,-6.86973 -1.08995,0.61998 z"
         fill="#322214"
         id="path183" />
      <path
         d="m 183.73285,60.838109 -39.58846,36.798568 c -1.11996,1.069959 -1.85993,2.669893 -1.82993,3.499863 -0.02,0.04 -0.11999,0.07 -0.15999,0 0.05,-0.63997 -0.35999,-1.07996 -0.65998,-1.149954 0.15,0.02 0.28999,0.06999 0.32999,-0.119995 0.02,-0.119996 0.05,-0.25999 0.1,-0.409984 0.04,-0.129995 0.1,-0.26999 0.16999,-0.419984 0.23999,-0.539979 0.62998,-1.159955 1.10996,-1.639936 L 183.13287,60.05814 Z"
         fill="#d7aa77"
         id="path185" />
      <path
         d="m 175.00319,105.47637 c 0,0.11 0.05,0.16 0.12,0.13 l 11.88953,-6.099765 c 0.02,-0.01 0.03,-0.03 0.04,-0.07 l 0.65998,-19.489241 c 0.02,-1.069959 0.61997,-2.129917 1.43994,-2.859889 l 39.48846,-35.488619 -12.01953,5.1498 -39.68846,35.9586 c -1.01996,0.999961 -1.36994,2.179916 -1.38994,3.179877 z"
         fill="url(#linearGradient-14)"
         id="path187"
         style="fill:url(#linearGradient-14)" />
      <polygon
         fill="#f8ce93"
         points="255.55006,29.279337 183.14287,60.04814 183.73285,60.838109 255.99004,29.879314 "
         id="polygon189" />
    </g>
    <g
       id="g295"
       transform="matrix(0.26458333,0,0,0.26458333,190.83337,71.133334)">
      <polygon
         fill="#007acc"
         transform="matrix(1,0,0,-1,0,256)"
         points="128,256 0,256 0,128 0,0 128,0 256,0 256,128 256,256 "
         id="polygon289" />
      <path
         d="m 146.65813,223.43686 0.0813,-10.48381 H 130.07908 113.41877 V 165.61337 118.27369 H 101.63464 89.850513 v 47.33968 47.33968 H 73.190195 56.529878 v 10.28064 c 0,5.68889 0.121904,10.44317 0.284444,10.56508 0.121905,0.16254 20.39873,0.24381 44.982858,0.20317 l 44.73905,-0.1219 z"
         fill="#ffffff"
         transform="rotate(180,101.63464,176.14299)"
         id="path291" />
      <path
         d="m 206.56663,234.27214 c 6.50159,-1.62539 11.45905,-4.51047 16.01016,-9.22412 2.35683,-2.51937 5.85143,-7.11111 6.13587,-8.20826 0.0813,-0.32508 -11.0527,-7.8019 -17.79809,-11.9873 -0.24381,-0.16254 -1.21905,0.89397 -2.31619,2.51937 -3.29143,4.79492 -6.7454,6.8673 -12.02794,7.23301 -7.76127,0.52826 -12.75936,-3.53524 -12.71873,-10.32127 0,-1.99111 0.28444,-3.16952 1.09714,-4.79492 1.70667,-3.53524 4.87619,-5.64825 14.83175,-9.95555 18.32635,-7.88318 26.16889,-13.08445 31.04508,-20.48 5.44508,-8.24889 6.66413,-21.41461 2.96635,-31.20762 -4.06349,-10.64635 -14.14095,-17.87937 -28.32254,-20.27683 -4.38857,-0.77206 -14.79111,-0.65016 -19.50476,0.20318 -10.28064,1.82857 -20.03302,6.90793 -26.04699,13.57206 -2.35682,2.60064 -6.94857,9.38667 -6.66412,9.87429 0.1219,0.16254 1.17841,0.81269 2.35682,1.50349 1.13778,0.65016 5.44508,3.12889 9.50857,5.48571 l 7.35492,4.26667 1.54413,-2.27556 c 2.15365,-3.29143 6.8673,-7.8019 9.71175,-9.30539 8.16761,-4.30731 19.38285,-3.69778 24.9092,1.25968 2.35683,2.15365 3.33207,4.38857 3.33207,7.68 0,2.96635 -0.36572,4.26667 -1.90985,6.50159 -1.99111,2.84444 -6.0546,5.2419 -17.59492,10.24 -13.20635,5.68889 -18.89523,9.22412 -24.0965,14.83174 -3.00699,3.2508 -5.85143,8.45207 -7.02985,12.8 -0.97523,3.61651 -1.21904,12.6781 -0.44698,16.33524 2.72254,12.75937 12.35302,21.65841 26.25016,24.29968 4.51048,0.85334 14.99428,0.52826 19.42349,-0.56889 z"
         fill="#ffffff"
         transform="matrix(1,0,0,-1,0,352.38048)"
         id="path293" />
    </g>
  </g>
</svg>
